<?xml version="1.0" encoding="UTF-8" standalone="no"?>
<!DOCTYPE svg PUBLIC "-//W3C//DTD SVG 1.1//EN" "http://www.w3.org/Graphics/SVG/1.1/DTD/svg11.dtd">
<svg width="100%" height="100%" viewBox="0 0 512 512" version="1.1" xmlns="http://www.w3.org/2000/svg" xmlns:xlink="http://www.w3.org/1999/xlink" xml:space="preserve" xmlns:serif="http://www.serif.com/" style="fill-rule:evenodd;clip-rule:evenodd;stroke-linejoin:round;stroke-miterlimit:2;">
    <path d="M115.057,512.029L115.103,481.942L159.051,481.942L159.14,439.858C160.38,426.308 171.974,418.415 182.045,416.97L212.093,416.97L212.18,344.311C225.77,348.309 240.041,350.88 256,349.904L256.747,349.947C272.404,350.799 286.442,348.247 299.82,344.311L299.907,416.97L329.955,416.97C340.026,418.415 351.62,426.308 352.86,439.858L352.949,481.942L396.897,481.942L396.943,512.029L256,512L115.057,512.029Z" style="fill:rgb(165,239,172);"/>
    <path d="M255.488,319.72C168.312,322.234 117.137,244.256 115.774,192.086L115.005,30.019L74.055,29.984L74.055,0L437.945,0L437.945,29.984L396.995,30.019L396.226,192.086C394.86,244.36 343.483,322.547 256,319.704L255.488,319.72Z" style="fill:rgb(165,239,172);"/>
    <path d="M94.082,231.716C19.48,217.194 30.886,144.112 29.986,90.567L84.999,90.021L84.911,60.077L0,59.988L0,157.181C0.061,216.876 43.506,264.167 106.156,261.995L94.082,231.716" style="fill:rgb(165,239,172);"/>
    <g transform="matrix(-1,0,0,1,512,0)">
        <path d="M94.082,231.716C19.48,217.194 30.886,144.112 29.986,90.567L84.999,90.021L84.911,60.077L0,59.988L0,157.181C0.061,216.876 43.506,264.167 106.156,261.995L94.082,231.716" style="fill:rgb(165,239,172);"/>
    </g>
</svg>
